<?xml version="1.0" encoding="iso-8859-1"?>
<!-- Generator: Adobe Illustrator 19.0.0, SVG Export Plug-In . SVG Version: 6.00 Build 0)  -->
<svg version="1.1" id="Layer_1" xmlns="http://www.w3.org/2000/svg" xmlns:xlink="http://www.w3.org/1999/xlink" x="0px" y="0px"
	 viewBox="0 0 512 512" style="enable-background:new 0 0 512 512;" xml:space="preserve">
<g>
	<g>
		<path d="M283.723,191.025h-99.285c-7.176,0-12.995,5.819-12.995,12.995c0,7.176,5.819,12.995,12.995,12.995h99.285
			c7.176,0,12.995-5.819,12.995-12.995C296.718,196.844,290.898,191.025,283.723,191.025z"/>
	</g>
</g>
<g>
	<g>
		<path d="M327.564,191.025h-5.289c-7.176,0-12.995,5.819-12.995,12.995c0,7.176,5.819,12.995,12.995,12.995h5.289
			c7.176,0,12.995-5.819,12.995-12.995C340.559,196.844,334.741,191.025,327.564,191.025z"/>
	</g>
</g>
<g>
	<g>
		<path d="M381.363,141.801H367.64V40.076c0-10.692-4.162-20.754-11.733-28.345C348.341,4.166,338.275,0,327.564,0
			c-22.099,0-40.078,17.978-40.078,40.076v101.724h-62.973V40.076c0-10.691-4.162-20.752-11.732-28.345
			C205.215,4.166,195.149,0,184.438,0c-22.098,0-40.076,17.978-40.076,40.076v101.724h-13.723
			c-14.245,0-25.834,11.589-25.834,25.834v63.194c0,57.118,43.521,104.261,99.151,110.011v12.778
			c0,10.844,5.258,20.483,13.357,26.504v118.883c0,7.176,5.819,12.995,12.995,12.995h52.917c7.176,0,12.995-5.819,12.995-12.995
			V380.124c8.1-6.023,13.357-15.661,13.357-26.504V340.68c24.632-2.863,47.426-13.847,65.223-31.645
			c20.889-20.891,32.395-48.663,32.395-78.206v-63.194C407.197,153.389,395.608,141.801,381.363,141.801z M313.476,40.076
			c0-7.768,6.319-14.086,14.088-14.086c3.768,0,7.308,1.463,9.953,4.108c2.665,2.673,4.134,6.217,4.134,9.979v101.724h-28.174
			V40.076z M170.351,40.076c0-7.768,6.318-14.086,14.086-14.086c3.77,0,7.31,1.463,9.953,4.106c2.665,2.674,4.134,6.217,4.134,9.98
			v101.724h-28.173V40.076z M270.23,486.01h-26.927v-99.373h26.927V486.01z M356.424,290.656
			c-15.981,15.982-37.232,24.783-59.84,24.783c-7.176,0-12.995,5.819-12.995,12.995v25.184c0,3.875-3.16,7.029-7.043,7.029h-39.557
			c-3.883,0-7.043-3.154-7.043-7.029v-25.184c0-7.176-5.819-12.995-12.995-12.995h-1.535c-46.661,0-84.622-37.956-84.622-84.61
			V167.79h26.56h54.163h88.963h54.164h26.56v63.038h0.001C381.207,253.428,372.407,274.675,356.424,290.656z"/>
	</g>
</g>
<g>
</g>
<g>
</g>
<g>
</g>
<g>
</g>
<g>
</g>
<g>
</g>
<g>
</g>
<g>
</g>
<g>
</g>
<g>
</g>
<g>
</g>
<g>
</g>
<g>
</g>
<g>
</g>
<g>
</g>
</svg>
