<?xml version="1.0" encoding="iso-8859-1"?>
<!-- Generator: Adobe Illustrator 19.0.0, SVG Export Plug-In . SVG Version: 6.00 Build 0)  -->
<svg version="1.1" id="Layer_1" xmlns="http://www.w3.org/2000/svg" xmlns:xlink="http://www.w3.org/1999/xlink" x="0px" y="0px"
	 viewBox="0 0 512 512" style="enable-background:new 0 0 512 512;" xml:space="preserve">
<g>
	<g>
		<path d="M135.111,135.111v241.778h241.778V135.111H135.111z M334.222,334.222H177.778V177.778h156.444V334.222z"/>
	</g>
</g>
<g>
	<g>
		<path d="M512,177.778v-42.667h-49.778v-21.333c0-35.29-28.71-64-64-64h-21.333V0h-42.667v49.778h-56.889V0h-42.667v49.778h-56.889
			V0h-42.667v49.778h-21.333c-35.29,0-64,28.71-64,64v21.333H0v42.667h49.778v56.889H0v42.667h49.778v56.889H0v42.667h49.778v21.333
			c0,35.29,28.71,64,64,64h21.333V512h42.667v-49.778h56.889V512h42.667v-49.778h56.889V512h42.667v-49.778h21.333
			c35.29,0,64-28.71,64-64v-21.333H512v-42.667h-49.778v-56.889H512v-42.667h-49.778v-56.889H512z M419.556,398.222
			c0,11.763-9.57,21.333-21.333,21.333H113.778c-11.763,0-21.333-9.57-21.333-21.333V113.778c0-11.763,9.57-21.333,21.333-21.333
			h284.444c11.763,0,21.333,9.57,21.333,21.333V398.222z"/>
	</g>
</g>
<g>
</g>
<g>
</g>
<g>
</g>
<g>
</g>
<g>
</g>
<g>
</g>
<g>
</g>
<g>
</g>
<g>
</g>
<g>
</g>
<g>
</g>
<g>
</g>
<g>
</g>
<g>
</g>
<g>
</g>
</svg>
